<svg width="32" height="32" viewBox="0 0 32 32" fill="none" xmlns="http://www.w3.org/2000/svg">
<path d="M29.5323 25.2631L24.782 15.8567V14.6551L29.5323 5.29321H32L26.6874 15.7529V14.7589L32 25.2631H29.5323Z" fill="black"/>
<path d="M2.07777 13.2175C1.64659 13.2175 1.27469 13.1002 0.962081 12.8656C0.654862 12.631 0.41771 12.3004 0.250626 11.8738C0.0835421 11.4419 0 10.93 0 10.3381C0 9.74626 0.0835421 9.23704 0.250626 8.81046C0.41771 8.37855 0.654862 8.04528 0.962081 7.81067C1.27469 7.57605 1.64659 7.45874 2.07777 7.45874C2.50896 7.45874 2.88085 7.57605 3.19346 7.81067C3.50607 8.04528 3.74592 8.37855 3.913 8.81046C4.08009 9.23704 4.16363 9.74626 4.16363 10.3381C4.16363 10.93 4.08009 11.4419 3.913 11.8738C3.74592 12.3004 3.50607 12.631 3.19346 12.8656C2.88085 13.1002 2.50896 13.2175 2.07777 13.2175ZM2.07777 12.4337C2.47123 12.4337 2.77575 12.2524 2.99134 11.8898C3.20694 11.5219 3.31473 11.0047 3.31473 10.3381C3.31473 9.67161 3.20694 9.15705 2.99134 8.79446C2.77575 8.42654 2.47123 8.24258 2.07777 8.24258C1.68432 8.24258 1.37979 8.42654 1.1642 8.79446C0.948607 9.15705 0.84081 9.67161 0.84081 10.3381C0.84081 11.0047 0.948607 11.5219 1.1642 11.8898C1.37979 12.2524 1.68432 12.4337 2.07777 12.4337Z" fill="black"/>
<path d="M7.02094 12.7456V8.20259L7.32008 8.42654L6.20439 9.01042L5.96993 8.25857L7.48177 7.45874H7.90218V12.7456H7.02094ZM6.12354 13.1376V12.3057H8.82384V13.1376H6.12354Z" fill="black"/>
<path d="M12.4862 13.2175C12.055 13.2175 11.6831 13.1002 11.3705 12.8656C11.0633 12.631 10.8262 12.3004 10.6591 11.8738C10.492 11.4419 10.4084 10.93 10.4084 10.3381C10.4084 9.74626 10.492 9.23704 10.6591 8.81046C10.8262 8.37855 11.0633 8.04528 11.3705 7.81067C11.6831 7.57605 12.055 7.45874 12.4862 7.45874C12.9174 7.45874 13.2893 7.57605 13.6019 7.81067C13.9145 8.04528 14.1544 8.37855 14.3214 8.81046C14.4885 9.23704 14.5721 9.74626 14.5721 10.3381C14.5721 10.93 14.4885 11.4419 14.3214 11.8738C14.1544 12.3004 13.9145 12.631 13.6019 12.8656C13.2893 13.1002 12.9174 13.2175 12.4862 13.2175ZM12.4862 12.4337C12.8797 12.4337 13.1842 12.2524 13.3998 11.8898C13.6154 11.5219 13.7232 11.0047 13.7232 10.3381C13.7232 9.67161 13.6154 9.15705 13.3998 8.79446C13.1842 8.42654 12.8797 8.24258 12.4862 8.24258C12.0928 8.24258 11.7882 8.42654 11.5726 8.79446C11.357 9.15705 11.2493 9.67161 11.2493 10.3381C11.2493 11.0047 11.357 11.5219 11.5726 11.8898C11.7882 12.2524 12.0928 12.4337 12.4862 12.4337Z" fill="black"/>
<path d="M18.1247 13.2175C17.6935 13.2175 17.3216 13.1002 17.009 12.8656C16.7018 12.631 16.4646 12.3004 16.2975 11.8738C16.1304 11.4419 16.0469 10.93 16.0469 10.3381C16.0469 9.74626 16.1304 9.23704 16.2975 8.81046C16.4646 8.37855 16.7018 8.04528 17.009 7.81067C17.3216 7.57605 17.6935 7.45874 18.1247 7.45874C18.5559 7.45874 18.9278 7.57605 19.2404 7.81067C19.553 8.04528 19.7928 8.37855 19.9599 8.81046C20.127 9.23704 20.2105 9.74626 20.2105 10.3381C20.2105 10.93 20.127 11.4419 19.9599 11.8738C19.7928 12.3004 19.553 12.631 19.2404 12.8656C18.9278 13.1002 18.5559 13.2175 18.1247 13.2175ZM18.1247 12.4337C18.5181 12.4337 18.8227 12.2524 19.0382 11.8898C19.2538 11.5219 19.3616 11.0047 19.3616 10.3381C19.3616 9.67161 19.2538 9.15705 19.0382 8.79446C18.8227 8.42654 18.5181 8.24258 18.1247 8.24258C17.7312 8.24258 17.4267 8.42654 17.2111 8.79446C16.9955 9.15705 16.8877 9.67161 16.8877 10.3381C16.8877 11.0047 16.9955 11.5219 17.2111 11.8898C17.4267 12.2524 17.7312 12.4337 18.1247 12.4337Z" fill="black"/>
<path d="M2.07777 23.0978C1.64659 23.0978 1.27469 22.9805 0.962081 22.7459C0.654862 22.5113 0.41771 22.1807 0.250626 21.7541C0.0835421 21.3222 0 20.8103 0 20.2184C0 19.6266 0.0835421 19.1173 0.250626 18.6908C0.41771 18.2588 0.654862 17.9256 0.962081 17.691C1.27469 17.4563 1.64659 17.339 2.07777 17.339C2.50896 17.339 2.88085 17.4563 3.19346 17.691C3.50607 17.9256 3.74592 18.2588 3.913 18.6908C4.08009 19.1173 4.16363 19.6266 4.16363 20.2184C4.16363 20.8103 4.08009 21.3222 3.913 21.7541C3.74592 22.1807 3.50607 22.5113 3.19346 22.7459C2.88085 22.9805 2.50896 23.0978 2.07777 23.0978ZM2.07777 22.314C2.47123 22.314 2.77575 22.1327 2.99134 21.7701C3.20694 21.4022 3.31473 20.885 3.31473 20.2184C3.31473 19.5519 3.20694 19.0373 2.99134 18.6748C2.77575 18.3068 2.47123 18.1229 2.07777 18.1229C1.68432 18.1229 1.37979 18.3068 1.1642 18.6748C0.948607 19.0373 0.84081 19.5519 0.84081 20.2184C0.84081 20.885 0.948607 21.4022 1.1642 21.7701C1.37979 22.1327 1.68432 22.314 2.07777 22.314Z" fill="black"/>
<path d="M7.71623 23.0978C7.28505 23.0978 6.91315 22.9805 6.60054 22.7459C6.29332 22.5113 6.05617 22.1807 5.88908 21.7541C5.722 21.3222 5.63846 20.8103 5.63846 20.2184C5.63846 19.6266 5.722 19.1173 5.88908 18.6908C6.05617 18.2588 6.29332 17.9256 6.60054 17.691C6.91315 17.4563 7.28505 17.339 7.71623 17.339C8.14742 17.339 8.51931 17.4563 8.83192 17.691C9.14453 17.9256 9.38438 18.2588 9.55146 18.6908C9.71854 19.1173 9.80209 19.6266 9.80209 20.2184C9.80209 20.8103 9.71854 21.3222 9.55146 21.7541C9.38438 22.1807 9.14453 22.5113 8.83192 22.7459C8.51931 22.9805 8.14742 23.0978 7.71623 23.0978ZM7.71623 22.314C8.10969 22.314 8.41421 22.1327 8.6298 21.7701C8.8454 21.4022 8.95319 20.885 8.95319 20.2184C8.95319 19.5519 8.8454 19.0373 8.6298 18.6748C8.41421 18.3068 8.10969 18.1229 7.71623 18.1229C7.32277 18.1229 7.01825 18.3068 6.80266 18.6748C6.58706 19.0373 6.47927 19.5519 6.47927 20.2184C6.47927 20.885 6.58706 21.4022 6.80266 21.7701C7.01825 22.1327 7.32277 22.314 7.71623 22.314Z" fill="black"/>
<path d="M12.6594 22.6259V18.0829L12.9585 18.3068L11.8428 18.8907L11.6084 18.1389L13.1202 17.339H13.5406V22.6259H12.6594ZM11.762 23.0179V22.186H14.4623V23.0179H11.762Z" fill="black"/>
<path d="M18.1247 23.0978C17.6935 23.0978 17.3216 22.9805 17.009 22.7459C16.7018 22.5113 16.4646 22.1807 16.2975 21.7541C16.1304 21.3222 16.0469 20.8103 16.0469 20.2184C16.0469 19.6266 16.1304 19.1173 16.2975 18.6908C16.4646 18.2588 16.7018 17.9256 17.009 17.691C17.3216 17.4563 17.6935 17.339 18.1247 17.339C18.5559 17.339 18.9278 17.4563 19.2404 17.691C19.553 17.9256 19.7928 18.2588 19.9599 18.6908C20.127 19.1173 20.2105 19.6266 20.2105 20.2184C20.2105 20.8103 20.127 21.3222 19.9599 21.7541C19.7928 22.1807 19.553 22.5113 19.2404 22.7459C18.9278 22.9805 18.5559 23.0978 18.1247 23.0978ZM18.1247 22.314C18.5181 22.314 18.8227 22.1327 19.0382 21.7701C19.2538 21.4022 19.3616 20.885 19.3616 20.2184C19.3616 19.5519 19.2538 19.0373 19.0382 18.6748C18.8227 18.3068 18.5181 18.1229 18.1247 18.1229C17.7312 18.1229 17.4267 18.3068 17.2111 18.6748C16.9955 19.0373 16.8877 19.5519 16.8877 20.2184C16.8877 20.885 16.9955 21.4022 17.2111 21.7701C17.4267 22.1327 17.7312 22.314 18.1247 22.314Z" fill="black"/>
</svg>
