<svg width="96" height="132" viewBox="0 0 96 132" fill="none" xmlns="http://www.w3.org/2000/svg">
<path d="M65.3032 132C80.3729 132 96 102.791 96 87.3939V86H79.6284V86.697C79.6284 89.7933 78.311 92.5752 76.2176 94.4895L65.9853 129.212L65.3032 130.606C64.621 132 65.3032 132 65.3032 132Z" fill="url(#paint0_linear_0_1)"/>
<path fill-rule="evenodd" clip-rule="evenodd" d="M27.8261 57C12.4582 57 0 69.4487 0 84.8049V86.1951C0 101.551 12.4582 114 27.8261 114H68.1739C83.5418 114 96 101.551 96 86.1951V84.8049C96 69.4487 83.5418 57 68.1739 57H27.8261ZM27.1304 75.0732C21.3675 75.0732 16.6957 79.7414 16.6957 85.5C16.6957 91.2586 21.3675 95.9268 27.1304 95.9268H68.8696C74.6325 95.9268 79.3043 91.2586 79.3043 85.5C79.3043 79.7414 74.6325 75.0732 68.8696 75.0732H27.1304Z" fill="url(#paint1_linear_0_1)"/>
<path d="M30.6968 0C15.6271 0 0 29.209 0 44.6061V46H16.3716V45.303C16.3716 42.2067 17.689 39.4248 19.7824 37.5105L30.0147 2.78788L30.6968 1.39394C31.379 0 30.6968 0 30.6968 0Z" fill="url(#paint2_linear_0_1)"/>
<path fill-rule="evenodd" clip-rule="evenodd" d="M27.8261 17C12.4582 17 0 29.6671 0 45.2927V46.7073C0 62.3329 12.4582 75 27.8261 75H68.1739C83.5418 75 96 62.3329 96 46.7073V45.2927C96 29.6671 83.5418 17 68.1739 17H27.8261ZM27.1304 35.3902C21.3675 35.3902 16.6957 40.1404 16.6957 46C16.6957 51.8596 21.3675 56.6098 27.1304 56.6098H68.8696C74.6325 56.6098 79.3043 51.8596 79.3043 46C79.3043 40.1404 74.6325 35.3902 68.8696 35.3902H27.1304Z" fill="url(#paint3_linear_0_1)"/>
<defs>
<linearGradient id="paint0_linear_0_1" x1="80.6516" y1="132" x2="80.6516" y2="86" gradientUnits="userSpaceOnUse">
<stop stop-color="#082F49"/>
<stop offset="1" stop-color="#0C4A6E"/>
</linearGradient>
<linearGradient id="paint1_linear_0_1" x1="48" y1="57" x2="48" y2="114" gradientUnits="userSpaceOnUse">
<stop stop-color="#0EA5E9"/>
<stop offset="1" stop-color="#082F49"/>
</linearGradient>
<linearGradient id="paint2_linear_0_1" x1="15.3484" y1="0" x2="15.3484" y2="46" gradientUnits="userSpaceOnUse">
<stop stop-color="#0F766E"/>
<stop offset="0.9999" stop-color="#134E4A"/>
</linearGradient>
<linearGradient id="paint3_linear_0_1" x1="48" y1="17" x2="48" y2="75" gradientUnits="userSpaceOnUse">
<stop stop-color="#2DD4BF"/>
<stop offset="1" stop-color="#134E4A"/>
</linearGradient>
</defs>
</svg>
