<svg width="636" height="170" viewBox="0 0 636 170" fill="none" xmlns="http://www.w3.org/2000/svg">
  <path d="M156.89 134.211L131.654 84.239V77.8554L156.89 28.1204H170L141.776 83.6874V78.4071L170 134.211H156.89Z" fill="black"/>
  <path d="M11.0382 70.2177C8.74749 70.2177 6.77179 69.5945 5.11106 68.348C3.47895 67.1016 2.21909 65.3453 1.33145 63.0791C0.443817 60.7846 0 58.0652 0 54.9208C0 51.7765 0.443817 49.0712 1.33145 46.805C2.21909 44.5105 3.47895 42.74 5.11106 41.4936C6.77179 40.2472 8.74749 39.624 11.0382 39.624C13.3288 39.624 15.3045 40.2472 16.9653 41.4936C18.626 42.74 19.9002 44.5105 20.7878 46.805C21.6755 49.0712 22.1193 51.7765 22.1193 54.9208C22.1193 58.0652 21.6755 60.7846 20.7878 63.0791C19.9002 65.3453 18.626 67.1016 16.9653 68.348C15.3045 69.5945 13.3288 70.2177 11.0382 70.2177ZM11.0382 66.0535C13.1284 66.0535 14.7462 65.0904 15.8915 63.1641C17.0369 61.2095 17.6095 58.4618 17.6095 54.9208C17.6095 51.3799 17.0369 48.6463 15.8915 46.72C14.7462 44.7655 13.1284 43.7882 11.0382 43.7882C8.94793 43.7882 7.33014 44.7655 6.18481 46.72C5.03947 48.6463 4.46681 51.3799 4.46681 54.9208C4.46681 58.4618 5.03947 61.2095 6.18481 63.1641C7.33014 65.0904 8.94793 66.0535 11.0382 66.0535Z" fill="black"/>
  <path d="M37.2988 67.7107V43.5757L38.8879 44.7655L32.9608 47.8673L31.7153 43.8731L39.7469 39.624H41.9803V67.7107H37.2988ZM32.5313 69.7927V65.3737H46.8766V69.7927H32.5313Z" fill="black"/>
  <path d="M66.333 70.2177C64.0423 70.2177 62.0666 69.5945 60.4059 68.348C58.7738 67.1016 57.5139 65.3453 56.6263 63.0791C55.7387 60.7846 55.2948 58.0652 55.2948 54.9208C55.2948 51.7765 55.7387 49.0712 56.6263 46.805C57.5139 44.5105 58.7738 42.74 60.4059 41.4936C62.0666 40.2472 64.0423 39.624 66.333 39.624C68.6237 39.624 70.5994 40.2472 72.2601 41.4936C73.9208 42.74 75.195 44.5105 76.0827 46.805C76.9703 49.0712 77.4141 51.7765 77.4141 54.9208C77.4141 58.0652 76.9703 60.7846 76.0827 63.0791C75.195 65.3453 73.9208 67.1016 72.2601 68.348C70.5994 69.5945 68.6237 70.2177 66.333 70.2177ZM66.333 66.0535C68.4232 66.0535 70.041 65.0904 71.1864 63.1641C72.3317 61.2095 72.9044 58.4618 72.9044 54.9208C72.9044 51.3799 72.3317 48.6463 71.1864 46.72C70.041 44.7655 68.4232 43.7882 66.333 43.7882C64.2428 43.7882 62.625 44.7655 61.4796 46.72C60.3343 48.6463 59.7616 51.3799 59.7616 54.9208C59.7616 58.4618 60.3343 61.2095 61.4796 63.1641C62.625 65.0904 64.2428 66.0535 66.333 66.0535Z" fill="black"/>
  <path d="M96.2873 70.2177C93.9966 70.2177 92.0209 69.5945 90.3602 68.348C88.7281 67.1016 87.4682 65.3453 86.5806 63.0791C85.693 60.7846 85.2491 58.0652 85.2491 54.9208C85.2491 51.7765 85.693 49.0712 86.5806 46.805C87.4682 44.5105 88.7281 42.74 90.3602 41.4936C92.0209 40.2472 93.9966 39.624 96.2873 39.624C98.578 39.624 100.554 40.2472 102.214 41.4936C103.875 42.74 105.149 44.5105 106.037 46.805C106.925 49.0712 107.368 51.7765 107.368 54.9208C107.368 58.0652 106.925 60.7846 106.037 63.0791C105.149 65.3453 103.875 67.1016 102.214 68.348C100.554 69.5945 98.578 70.2177 96.2873 70.2177ZM96.2873 66.0535C98.3775 66.0535 99.9953 65.0904 101.141 63.1641C102.286 61.2095 102.859 58.4618 102.859 54.9208C102.859 51.3799 102.286 48.6463 101.141 46.72C99.9953 44.7655 98.3775 43.7882 96.2873 43.7882C94.1971 43.7882 92.5793 44.7655 91.434 46.72C90.2886 48.6463 89.716 51.3799 89.716 54.9208C89.716 58.4618 90.2886 61.2095 91.434 63.1641C92.5793 65.0904 94.1971 66.0535 96.2873 66.0535Z" fill="black"/>
  <path d="M11.0382 122.707C8.74749 122.707 6.77179 122.084 5.11106 120.837C3.47895 119.591 2.21909 117.834 1.33145 115.568C0.443817 113.274 0 110.554 0 107.41C0 104.266 0.443817 101.56 1.33145 99.2941C2.21909 96.9996 3.47895 95.2291 5.11106 93.9827C6.77179 92.7363 8.74749 92.1131 11.0382 92.1131C13.3288 92.1131 15.3045 92.7363 16.9653 93.9827C18.626 95.2291 19.9002 96.9996 20.7878 99.2941C21.6755 101.56 22.1193 104.266 22.1193 107.41C22.1193 110.554 21.6755 113.274 20.7878 115.568C19.9002 117.834 18.626 119.591 16.9653 120.837C15.3045 122.084 13.3288 122.707 11.0382 122.707ZM11.0382 118.543C13.1284 118.543 14.7462 117.579 15.8915 115.653C17.0369 113.699 17.6095 110.951 17.6095 107.41C17.6095 103.869 17.0369 101.135 15.8915 99.2091C14.7462 97.2545 13.1284 96.2772 11.0382 96.2772C8.94793 96.2772 7.33014 97.2545 6.18481 99.2091C5.03947 101.135 4.46681 103.869 4.46681 107.41C4.46681 110.951 5.03947 113.699 6.18481 115.653C7.33014 117.579 8.94793 118.543 11.0382 118.543Z" fill="black"/>
  <path d="M40.9925 122.707C38.7018 122.707 36.7261 122.084 35.0654 120.837C33.4333 119.591 32.1734 117.834 31.2858 115.568C30.3981 113.274 29.9543 110.554 29.9543 107.41C29.9543 104.266 30.3981 101.56 31.2858 99.2941C32.1734 96.9996 33.4333 95.2291 35.0654 93.9827C36.7261 92.7363 38.7018 92.1131 40.9925 92.1131C43.2831 92.1131 45.2588 92.7363 46.9196 93.9827C48.5803 95.2291 49.8545 96.9996 50.7421 99.2941C51.6298 101.56 52.0736 104.266 52.0736 107.41C52.0736 110.554 51.6298 113.274 50.7421 115.568C49.8545 117.834 48.5803 119.591 46.9196 120.837C45.2588 122.084 43.2831 122.707 40.9925 122.707ZM40.9925 118.543C43.0827 118.543 44.7005 117.579 45.8458 115.653C46.9912 113.699 47.5638 110.951 47.5638 107.41C47.5638 103.869 46.9912 101.135 45.8458 99.2091C44.7005 97.2545 43.0827 96.2772 40.9925 96.2772C38.9022 96.2772 37.2844 97.2545 36.1391 99.2091C34.9938 101.135 34.4211 103.869 34.4211 107.41C34.4211 110.951 34.9938 113.699 36.1391 115.653C37.2844 117.579 38.9022 118.543 40.9925 118.543Z" fill="black"/>
  <path d="M67.2531 120.2V96.0648L68.8422 97.2545L62.9151 100.356L61.6696 96.3622L69.7012 92.1131H71.9346V120.2H67.2531ZM62.4856 122.282V117.863H76.8309V122.282H62.4856Z" fill="black"/>
  <path d="M96.2873 122.707C93.9966 122.707 92.0209 122.084 90.3602 120.837C88.7281 119.591 87.4682 117.834 86.5806 115.568C85.693 113.274 85.2491 110.554 85.2491 107.41C85.2491 104.266 85.693 101.56 86.5806 99.2941C87.4682 96.9996 88.7281 95.2291 90.3602 93.9827C92.0209 92.7363 93.9966 92.1131 96.2873 92.1131C98.578 92.1131 100.554 92.7363 102.214 93.9827C103.875 95.2291 105.149 96.9996 106.037 99.2941C106.925 101.56 107.368 104.266 107.368 107.41C107.368 110.554 106.925 113.274 106.037 115.568C105.149 117.834 103.875 119.591 102.214 120.837C100.554 122.084 98.578 122.707 96.2873 122.707ZM96.2873 118.543C98.3775 118.543 99.9953 117.579 101.141 115.653C102.286 113.699 102.859 110.951 102.859 107.41C102.859 103.869 102.286 101.135 101.141 99.2091C99.9953 97.2545 98.3775 96.2772 96.2873 96.2772C94.1971 96.2772 92.5793 97.2545 91.434 99.2091C90.2886 101.135 89.716 103.869 89.716 107.41C89.716 110.951 90.2886 113.699 91.434 115.653C92.5793 117.579 94.1971 118.543 96.2873 118.543Z" fill="black"/>
  <path d="M193.333 96.6313V0.821227H233.35C239.471 0.821227 244.633 1.73371 248.835 3.55866C253.038 5.38361 256.19 8.12104 258.291 11.771C260.484 15.3296 261.58 19.7095 261.58 24.9106C261.58 30.1117 260.118 34.5372 257.195 38.1872C254.363 41.8371 250.388 44.3464 245.272 45.7151V42.9777C249.566 43.8901 253.312 45.5326 256.51 47.905C259.707 50.1862 262.174 53.0605 263.91 56.5279C265.737 59.9953 266.651 63.9646 266.651 68.4358C266.651 72.9981 265.92 77.0587 264.458 80.6173C263.088 84.0847 260.986 87.0047 258.154 89.3771C255.413 91.7495 252.079 93.5745 248.15 94.852C244.221 96.0382 239.745 96.6313 234.72 96.6313H193.333ZM208.134 82.3966H233.898C237.644 82.3966 240.795 81.8492 243.354 80.7542C246.003 79.6592 248.013 78.0624 249.383 75.9637C250.845 73.7737 251.576 71.1732 251.576 68.162C251.576 65.3333 250.799 62.9153 249.246 60.9078C247.785 58.9004 245.683 57.3948 242.942 56.3911C240.202 55.2961 236.958 54.7486 233.212 54.7486H208.134V82.3966ZM208.134 40.514H232.527C235.268 40.514 237.689 39.9665 239.79 38.8715C241.983 37.7765 243.673 36.271 244.861 34.3547C246.14 32.4385 246.78 30.2486 246.78 27.7849C246.78 23.6788 245.409 20.5307 242.668 18.3408C239.928 16.1508 235.999 15.0559 230.883 15.0559H208.134V40.514Z" fill="black"/>
  <path d="M288.942 96.6313L326.081 0.821227H341.155L378.019 96.6313H362.26L340.333 38.8715C340.059 38.2328 339.511 36.6816 338.688 34.2179C337.958 31.7542 337.09 29.0168 336.085 26.0056C335.08 22.9944 334.166 20.257 333.344 17.7933C332.522 15.2384 331.973 13.5959 331.699 12.8659L334.851 12.729C334.303 14.2803 333.618 16.2421 332.796 18.6145C332.065 20.987 331.243 23.4963 330.329 26.1425C329.507 28.7886 328.684 31.298 327.862 33.6704C327.04 35.9516 326.355 37.8678 325.807 39.419L304.017 96.6313H288.942ZM305.387 72.8156L310.869 58.581H354.448L360.752 72.8156H305.387Z" fill="black"/>
  <path d="M443.479 98C436.81 98 430.689 96.8138 425.116 94.4413C419.543 92.0689 414.701 88.6927 410.589 84.3129C406.478 79.8417 403.28 74.595 400.996 68.5726C398.804 62.5503 397.707 55.9348 397.707 48.7263C397.707 41.8827 398.895 35.541 401.27 29.7011C403.737 23.77 407.118 18.5689 411.412 14.0978C415.706 9.62663 420.685 6.15922 426.349 3.69553C432.013 1.23184 438.135 0 444.713 0C449.372 0 453.894 0.72998 458.28 2.18994C462.756 3.55866 466.776 5.52049 470.339 8.07542C473.994 10.5391 476.963 13.3678 479.247 16.5615L469.38 26.8268C466.731 24.1806 464.036 21.9907 461.295 20.257C458.645 18.432 455.904 17.0633 453.072 16.1508C450.331 15.2384 447.545 14.7821 444.713 14.7821C440.236 14.7821 436.033 15.649 432.105 17.3827C428.268 19.0251 424.887 21.352 421.964 24.3631C419.132 27.3743 416.893 30.9786 415.249 35.176C413.604 39.2821 412.782 43.7989 412.782 48.7263C412.782 53.9274 413.559 58.6723 415.112 62.9609C416.756 67.1583 419.04 70.7626 421.964 73.7737C424.887 76.7849 428.359 79.1117 432.379 80.7542C436.49 82.3054 441.013 83.081 445.946 83.081C448.961 83.081 451.93 82.6704 454.854 81.8492C457.777 81.0279 460.518 79.8417 463.076 78.2905C465.634 76.7393 467.964 74.9143 470.065 72.8156L477.466 84.8603C475.364 87.324 472.486 89.5596 468.832 91.567C465.269 93.5745 461.249 95.1713 456.772 96.3575C452.387 97.4525 447.956 98 443.479 98Z" fill="black"/>
  <path d="M572.533 96.6313V0.821227H587.333V96.6313H572.533ZM509.905 96.6313V0.821227H524.705V96.6313H509.905ZM516.346 55.9804V41.7458H579.111V55.9804H516.346Z" fill="black"/>
  <path d="M209.916 170C207.481 170 205.217 169.674 203.124 169.021C201.074 168.368 199.194 167.389 197.485 166.083C195.819 164.734 194.324 163.081 193 161.122L197.742 155.574C199.835 158.62 201.842 160.731 203.765 161.906C205.687 163.081 207.972 163.668 210.621 163.668C212.244 163.668 213.718 163.407 215.042 162.885C216.366 162.363 217.413 161.644 218.182 160.731C218.951 159.817 219.335 158.772 219.335 157.597C219.335 156.814 219.207 156.074 218.951 155.378C218.694 154.681 218.289 154.05 217.733 153.485C217.221 152.919 216.537 152.397 215.683 151.918C214.871 151.439 213.91 151.026 212.799 150.678C211.689 150.286 210.407 149.96 208.955 149.699C206.648 149.22 204.64 148.589 202.932 147.806C201.223 147.022 199.792 146.043 198.639 144.868C197.485 143.693 196.631 142.366 196.076 140.886C195.52 139.363 195.243 137.666 195.243 135.794C195.243 133.967 195.627 132.269 196.396 130.703C197.208 129.136 198.297 127.787 199.664 126.656C201.074 125.481 202.718 124.588 204.598 123.979C206.477 123.326 208.506 123 210.685 123C212.992 123 215.106 123.305 217.028 123.914C218.951 124.523 220.659 125.437 222.155 126.656C223.65 127.831 224.888 129.288 225.871 131.029L221.001 135.925C220.147 134.489 219.186 133.292 218.118 132.335C217.05 131.334 215.875 130.594 214.594 130.115C213.312 129.593 211.945 129.332 210.493 129.332C208.827 129.332 207.374 129.593 206.136 130.115C204.897 130.638 203.914 131.377 203.188 132.335C202.505 133.249 202.163 134.337 202.163 135.599C202.163 136.513 202.334 137.361 202.675 138.144C203.017 138.884 203.53 139.559 204.213 140.168C204.939 140.734 205.901 141.256 207.097 141.735C208.293 142.17 209.724 142.562 211.39 142.91C213.739 143.432 215.832 144.106 217.669 144.933C219.506 145.717 221.065 146.652 222.347 147.74C223.628 148.828 224.589 150.047 225.23 151.396C225.914 152.745 226.255 154.203 226.255 155.769C226.255 158.685 225.593 161.209 224.269 163.342C222.945 165.474 221.065 167.128 218.63 168.303C216.195 169.434 213.291 170 209.916 170Z" fill="black"/>
  <path d="M261.242 170C258.081 170 255.155 169.413 252.464 168.238C249.815 167.063 247.487 165.431 245.48 163.342C243.515 161.209 241.977 158.729 240.866 155.9C239.798 153.028 239.264 149.894 239.264 146.5C239.264 143.106 239.798 139.994 240.866 137.165C241.977 134.293 243.515 131.813 245.48 129.724C247.487 127.591 249.815 125.938 252.464 124.763C255.155 123.588 258.081 123 261.242 123C264.403 123 267.308 123.588 269.957 124.763C272.648 125.938 274.976 127.591 276.941 129.724C278.949 131.856 280.486 134.358 281.554 137.231C282.665 140.059 283.22 143.149 283.22 146.5C283.22 149.851 282.665 152.963 281.554 155.835C280.486 158.663 278.949 161.144 276.941 163.276C274.976 165.409 272.648 167.063 269.957 168.238C267.308 169.413 264.403 170 261.242 170ZM261.242 163.146C263.421 163.146 265.407 162.732 267.201 161.906C269.038 161.079 270.619 159.925 271.943 158.446C273.267 156.923 274.292 155.16 275.019 153.158C275.788 151.113 276.172 148.894 276.172 146.5C276.172 144.106 275.788 141.909 275.019 139.907C274.292 137.862 273.267 136.099 271.943 134.619C270.619 133.096 269.038 131.921 267.201 131.094C265.407 130.268 263.421 129.854 261.242 129.854C259.064 129.854 257.056 130.268 255.219 131.094C253.425 131.921 251.845 133.075 250.478 134.554C249.153 136.034 248.128 137.796 247.402 139.842C246.676 141.844 246.313 144.063 246.313 146.5C246.313 148.894 246.676 151.113 247.402 153.158C248.128 155.204 249.153 156.966 250.478 158.446C251.845 159.925 253.425 161.079 255.219 161.906C257.056 162.732 259.064 163.146 261.242 163.146Z" fill="black"/>
  <path d="M298.997 169.347V123.653H305.918V169.347H298.997ZM302.073 149.894V143.106H325.205V149.894H302.073ZM302.073 130.442V123.653H328.088V130.442H302.073Z" fill="black"/>
  <path d="M353.411 169.347V130.442H340.853V123.653H373.275V130.442H360.332V169.347H353.411Z" fill="black"/>
  <path d="M398.389 169.347L384.1 123.653H391.468L400.119 152.244C400.375 152.941 400.61 153.768 400.824 154.725C401.037 155.639 401.229 156.575 401.4 157.532C401.571 158.489 401.721 159.381 401.849 160.208C402.02 161.035 402.169 161.71 402.297 162.232L400.439 162.167C401.08 159.86 401.571 158.076 401.913 156.814C402.297 155.552 402.596 154.594 402.81 153.942C403.023 153.245 403.216 152.658 403.387 152.179L411.46 131.551H417.676L425.493 152.179C425.92 153.224 426.283 154.268 426.582 155.313C426.924 156.313 427.223 157.336 427.479 158.381C427.735 159.381 428.013 160.448 428.312 161.579L426.646 162.036C426.86 160.861 427.009 159.947 427.095 159.294C427.223 158.598 427.33 158.032 427.415 157.597C427.5 157.162 427.586 156.749 427.671 156.357C427.757 155.922 427.885 155.378 428.056 154.725C428.269 154.072 428.547 153.18 428.889 152.049L437.411 123.653H444.844L430.555 169.347H425.749L413.895 140.756L414.472 141.017L403.066 169.347H398.389Z" fill="black"/>
  <path d="M451.831 169.347L469.196 123.653H476.244L493.481 169.347H486.112L475.86 141.8C475.732 141.495 475.475 140.756 475.091 139.581C474.749 138.406 474.343 137.1 473.874 135.664C473.404 134.228 472.977 132.922 472.592 131.747C472.208 130.529 471.951 129.745 471.823 129.397L473.297 129.332C473.041 130.072 472.72 131.007 472.336 132.139C471.994 133.27 471.61 134.467 471.182 135.729C470.798 136.991 470.413 138.188 470.029 139.319C469.645 140.407 469.324 141.321 469.068 142.061L458.88 169.347H451.831ZM459.521 157.989L462.084 151.2H482.46L485.407 157.989H459.521Z" fill="black"/>
  <path d="M507.782 169.347V123.653H526.877C529.44 123.653 531.789 124.306 533.925 125.611C536.104 126.873 537.834 128.614 539.115 130.833C540.397 133.009 541.038 135.468 541.038 138.21C541.038 140.69 540.397 142.997 539.115 145.129C537.834 147.262 536.125 148.981 533.989 150.286C531.853 151.548 529.483 152.179 526.877 152.179H514.702V169.347H507.782ZM534.438 169.347L523.032 148.719L530.145 147.087L542.832 169.413L534.438 169.347ZM514.702 145.39H527.518C528.756 145.39 529.867 145.086 530.85 144.476C531.832 143.824 532.601 142.953 533.156 141.865C533.712 140.734 533.989 139.494 533.989 138.144C533.989 136.621 533.626 135.294 532.9 134.163C532.216 132.987 531.234 132.074 529.952 131.421C528.714 130.768 527.304 130.442 525.723 130.442H514.702V145.39Z" fill="black"/>
  <path d="M558.743 169.347V123.653H587V130.442H565.663V162.558H587V169.347H558.743ZM561.882 149.307V142.518H583.476V149.307H561.882Z" fill="black"/>
  <ellipse cx="623.333" cy="83.6666" rx="12.6667" ry="13" fill="black"/>
  </svg>
  