<svg width="611" height="170" viewBox="0 0 611 170" fill="none" xmlns="http://www.w3.org/2000/svg">
<path d="M113.273 152L83 89.3531V81.3503L113.273 19H129L95.1428 88.6616V82.0419L129 152H113.273Z" fill="white"/>
<path d="M8.0189 77.4621C6.3548 77.4621 4.91951 77.0045 3.71303 76.0894C2.52736 75.1743 1.6121 73.8848 0.967261 72.2209C0.32242 70.5363 0 68.5397 0 66.231C0 63.9224 0.32242 61.9362 0.967261 60.2724C1.6121 58.5877 2.52736 57.2878 3.71303 56.3727C4.91951 55.4576 6.3548 55 8.0189 55C9.68301 55 11.1183 55.4576 12.3248 56.3727C13.5312 57.2878 14.4569 58.5877 15.1017 60.2724C15.7466 61.9362 16.069 63.9224 16.069 66.231C16.069 68.5397 15.7466 70.5363 15.1017 72.2209C14.4569 73.8848 13.5312 75.1743 12.3248 76.0894C11.1183 77.0045 9.68301 77.4621 8.0189 77.4621ZM8.0189 74.4048C9.5374 74.4048 10.7127 73.6976 11.5447 72.2833C12.3768 70.8483 12.7928 68.8308 12.7928 66.231C12.7928 63.6313 12.3768 61.6242 11.5447 60.21C10.7127 58.7749 9.5374 58.0573 8.0189 58.0573C6.50041 58.0573 5.32513 58.7749 4.49308 60.21C3.66103 61.6242 3.245 63.6313 3.245 66.231C3.245 68.8308 3.66103 70.8483 4.49308 72.2833C5.32513 73.6976 6.50041 74.4048 8.0189 74.4048Z" fill="white"/>
<path d="M27.0965 75.6215V57.9014L28.2509 58.7749L23.9451 61.0523L23.0402 58.1197L28.875 55H30.4975V75.6215H27.0965ZM23.633 77.1501V73.9056H34.0545V77.1501H23.633Z" fill="white"/>
<path d="M48.189 77.4621C46.5249 77.4621 45.0896 77.0045 43.8831 76.0894C42.6974 75.1743 41.7822 73.8848 41.1373 72.2209C40.4925 70.5363 40.1701 68.5397 40.1701 66.231C40.1701 63.9224 40.4925 61.9362 41.1373 60.2724C41.7822 58.5877 42.6974 57.2878 43.8831 56.3727C45.0896 55.4576 46.5249 55 48.189 55C49.8531 55 51.2884 55.4576 52.4948 56.3727C53.7013 57.2878 54.627 58.5877 55.2718 60.2724C55.9167 61.9362 56.2391 63.9224 56.2391 66.231C56.2391 68.5397 55.9167 70.5363 55.2718 72.2209C54.627 73.8848 53.7013 75.1743 52.4948 76.0894C51.2884 77.0045 49.8531 77.4621 48.189 77.4621ZM48.189 74.4048C49.7075 74.4048 50.8827 73.6976 51.7148 72.2833C52.5468 70.8483 52.9629 68.8308 52.9629 66.231C52.9629 63.6313 52.5468 61.6242 51.7148 60.21C50.8827 58.7749 49.7075 58.0573 48.189 58.0573C46.6705 58.0573 45.4952 58.7749 44.6632 60.21C43.8311 61.6242 43.4151 63.6313 43.4151 66.231C43.4151 68.8308 43.8311 70.8483 44.6632 72.2833C45.4952 73.6976 46.6705 74.4048 48.189 74.4048Z" fill="white"/>
<path d="M69.9499 77.4621C68.2858 77.4621 66.8505 77.0045 65.644 76.0894C64.4584 75.1743 63.5431 73.8848 62.8983 72.2209C62.2534 70.5363 61.931 68.5397 61.931 66.231C61.931 63.9224 62.2534 61.9362 62.8983 60.2724C63.5431 58.5877 64.4584 57.2878 65.644 56.3727C66.8505 55.4576 68.2858 55 69.9499 55C71.614 55 73.0493 55.4576 74.2558 56.3727C75.4622 57.2878 76.3879 58.5877 77.0327 60.2724C77.6776 61.9362 78 63.9224 78 66.231C78 68.5397 77.6776 70.5363 77.0327 72.2209C76.3879 73.8848 75.4622 75.1743 74.2558 76.0894C73.0493 77.0045 71.614 77.4621 69.9499 77.4621ZM69.9499 74.4048C71.4684 74.4048 72.6437 73.6976 73.4757 72.2833C74.3078 70.8483 74.7238 68.8308 74.7238 66.231C74.7238 63.6313 74.3078 61.6242 73.4757 60.21C72.6437 58.7749 71.4684 58.0573 69.9499 58.0573C68.4314 58.0573 67.2561 58.7749 66.4241 60.21C65.592 61.6242 65.176 63.6313 65.176 66.231C65.176 68.8308 65.592 70.8483 66.4241 72.2833C67.2561 73.6976 68.4314 74.4048 69.9499 74.4048Z" fill="white"/>
<path d="M8.0189 116C6.3548 116 4.91951 115.542 3.71303 114.627C2.52736 113.712 1.6121 112.423 0.967261 110.759C0.32242 109.074 0 107.078 0 104.769C0 102.46 0.32242 100.474 0.967261 98.8103C1.6121 97.1256 2.52736 95.8257 3.71303 94.9106C4.91951 93.9955 6.3548 93.5379 8.0189 93.5379C9.68301 93.5379 11.1183 93.9955 12.3248 94.9106C13.5312 95.8257 14.4569 97.1256 15.1017 98.8103C15.7466 100.474 16.069 102.46 16.069 104.769C16.069 107.078 15.7466 109.074 15.1017 110.759C14.4569 112.423 13.5312 113.712 12.3248 114.627C11.1183 115.542 9.68301 116 8.0189 116ZM8.0189 112.943C9.5374 112.943 10.7127 112.236 11.5447 110.821C12.3768 109.386 12.7928 107.369 12.7928 104.769C12.7928 102.169 12.3768 100.162 11.5447 98.7479C10.7127 97.3128 9.5374 96.5952 8.0189 96.5952C6.50041 96.5952 5.32513 97.3128 4.49308 98.7479C3.66103 100.162 3.245 102.169 3.245 104.769C3.245 107.369 3.66103 109.386 4.49308 110.821C5.32513 112.236 6.50041 112.943 8.0189 112.943Z" fill="white"/>
<path d="M29.7798 116C28.1157 116 26.6804 115.542 25.474 114.627C24.2883 113.712 23.373 112.423 22.7282 110.759C22.0833 109.074 21.7609 107.078 21.7609 104.769C21.7609 102.46 22.0833 100.474 22.7282 98.8103C23.373 97.1256 24.2883 95.8257 25.474 94.9106C26.6804 93.9955 28.1157 93.5379 29.7798 93.5379C31.4439 93.5379 32.8792 93.9955 34.0857 94.9106C35.2922 95.8257 36.2178 97.1256 36.8627 98.8103C37.5075 100.474 37.8299 102.46 37.8299 104.769C37.8299 107.078 37.5075 109.074 36.8627 110.759C36.2178 112.423 35.2922 113.712 34.0857 114.627C32.8792 115.542 31.4439 116 29.7798 116ZM29.7798 112.943C31.2983 112.943 32.4736 112.236 33.3056 110.821C34.1377 109.386 34.5537 107.369 34.5537 104.769C34.5537 102.169 34.1377 100.162 33.3056 98.7479C32.4736 97.3128 31.2983 96.5952 29.7798 96.5952C28.2613 96.5952 27.0861 97.3128 26.254 98.7479C25.422 100.162 25.0059 102.169 25.0059 104.769C25.0059 107.369 25.422 109.386 26.254 110.821C27.0861 112.236 28.2613 112.943 29.7798 112.943Z" fill="white"/>
<path d="M48.8574 114.159V96.4393L50.0118 97.3128L45.706 99.5902L44.8011 96.6576L50.6359 93.5379H52.2584V114.159H48.8574ZM45.394 115.688V112.443H55.8154V115.688H45.394Z" fill="white"/>
<path d="M69.9499 116C68.2858 116 66.8505 115.542 65.644 114.627C64.4584 113.712 63.5431 112.423 62.8983 110.759C62.2534 109.074 61.931 107.078 61.931 104.769C61.931 102.46 62.2534 100.474 62.8983 98.8103C63.5431 97.1256 64.4584 95.8257 65.644 94.9106C66.8505 93.9955 68.2858 93.5379 69.9499 93.5379C71.614 93.5379 73.0493 93.9955 74.2558 94.9106C75.4622 95.8257 76.3879 97.1256 77.0327 98.8103C77.6776 100.474 78 102.46 78 104.769C78 107.078 77.6776 109.074 77.0327 110.759C76.3879 112.423 75.4622 113.712 74.2558 114.627C73.0493 115.542 71.614 116 69.9499 116ZM69.9499 112.943C71.4684 112.943 72.6437 112.236 73.4757 110.821C74.3078 109.386 74.7238 107.369 74.7238 104.769C74.7238 102.169 74.3078 100.162 73.4757 98.7479C72.6437 97.3128 71.4684 96.5952 69.9499 96.5952C68.4314 96.5952 67.2561 97.3128 66.4241 98.7479C65.592 100.162 65.176 102.169 65.176 104.769C65.176 107.369 65.592 109.386 66.4241 110.821C67.2561 112.236 68.4314 112.943 69.9499 112.943Z" fill="white"/>
<path d="M168.333 96.6313V0.821227H208.35C214.471 0.821227 219.633 1.73371 223.835 3.55866C228.038 5.38361 231.19 8.12104 233.291 11.771C235.484 15.3296 236.58 19.7095 236.58 24.9106C236.58 30.1117 235.118 34.5372 232.195 38.1872C229.363 41.8371 225.388 44.3464 220.272 45.7151V42.9777C224.566 43.8901 228.312 45.5326 231.51 47.905C234.707 50.1862 237.174 53.0605 238.91 56.5279C240.737 59.9953 241.651 63.9646 241.651 68.4358C241.651 72.9981 240.92 77.0587 239.458 80.6173C238.088 84.0847 235.986 87.0047 233.154 89.3771C230.413 91.7495 227.079 93.5745 223.15 94.852C219.221 96.0382 214.745 96.6313 209.72 96.6313H168.333ZM183.134 82.3966H208.898C212.644 82.3966 215.795 81.8492 218.354 80.7542C221.003 79.6592 223.013 78.0624 224.383 75.9637C225.845 73.7737 226.576 71.1732 226.576 68.162C226.576 65.3333 225.799 62.9153 224.246 60.9078C222.785 58.9004 220.683 57.3948 217.942 56.3911C215.202 55.2961 211.958 54.7486 208.212 54.7486H183.134V82.3966ZM183.134 40.514H207.527C210.268 40.514 212.689 39.9665 214.79 38.8715C216.983 37.7765 218.673 36.271 219.861 34.3547C221.14 32.4385 221.78 30.2486 221.78 27.7849C221.78 23.6788 220.409 20.5307 217.668 18.3408C214.928 16.1508 210.999 15.0559 205.883 15.0559H183.134V40.514Z" fill="white"/>
<path d="M263.942 96.6313L301.081 0.821227H316.155L353.019 96.6313H337.26L315.333 38.8715C315.059 38.2328 314.511 36.6816 313.688 34.2179C312.958 31.7542 312.09 29.0168 311.085 26.0056C310.08 22.9944 309.166 20.257 308.344 17.7933C307.522 15.2384 306.973 13.5959 306.699 12.8659L309.851 12.729C309.303 14.2803 308.618 16.2421 307.796 18.6145C307.065 20.987 306.243 23.4963 305.329 26.1425C304.507 28.7886 303.684 31.298 302.862 33.6704C302.04 35.9516 301.355 37.8678 300.807 39.419L279.017 96.6313H263.942ZM280.387 72.8156L285.869 58.581H329.448L335.752 72.8156H280.387Z" fill="white"/>
<path d="M418.479 98C411.81 98 405.689 96.8138 400.116 94.4413C394.543 92.0689 389.701 88.6927 385.589 84.3129C381.478 79.8417 378.28 74.595 375.996 68.5726C373.804 62.5503 372.707 55.9348 372.707 48.7263C372.707 41.8827 373.895 35.541 376.27 29.7011C378.737 23.77 382.118 18.5689 386.412 14.0978C390.706 9.62663 395.685 6.15922 401.349 3.69553C407.013 1.23184 413.135 0 419.713 0C424.372 0 428.894 0.72998 433.28 2.18994C437.756 3.55866 441.776 5.52049 445.339 8.07542C448.994 10.5391 451.963 13.3678 454.247 16.5615L444.38 26.8268C441.731 24.1806 439.036 21.9907 436.295 20.257C433.645 18.432 430.904 17.0633 428.072 16.1508C425.331 15.2384 422.545 14.7821 419.713 14.7821C415.236 14.7821 411.033 15.649 407.105 17.3827C403.268 19.0251 399.887 21.352 396.964 24.3631C394.132 27.3743 391.893 30.9786 390.249 35.176C388.604 39.2821 387.782 43.7989 387.782 48.7263C387.782 53.9274 388.559 58.6723 390.112 62.9609C391.756 67.1583 394.04 70.7626 396.964 73.7737C399.887 76.7849 403.359 79.1117 407.379 80.7542C411.49 82.3054 416.013 83.081 420.946 83.081C423.961 83.081 426.93 82.6704 429.854 81.8492C432.777 81.0279 435.518 79.8417 438.076 78.2905C440.634 76.7393 442.964 74.9143 445.065 72.8156L452.466 84.8603C450.364 87.324 447.486 89.5596 443.832 91.567C440.269 93.5745 436.249 95.1713 431.772 96.3575C427.387 97.4525 422.956 98 418.479 98Z" fill="white"/>
<path d="M547.533 96.6313V0.821227H562.333V96.6313H547.533ZM484.905 96.6313V0.821227H499.705V96.6313H484.905ZM491.346 55.9804V41.7458H554.111V55.9804H491.346Z" fill="white"/>
<path d="M184.916 170C182.481 170 180.217 169.674 178.124 169.021C176.074 168.368 174.194 167.389 172.485 166.083C170.819 164.734 169.324 163.081 168 161.122L172.742 155.574C174.835 158.62 176.842 160.731 178.765 161.906C180.687 163.081 182.972 163.668 185.621 163.668C187.244 163.668 188.718 163.407 190.042 162.885C191.366 162.363 192.413 161.644 193.182 160.731C193.951 159.817 194.335 158.772 194.335 157.597C194.335 156.814 194.207 156.074 193.951 155.378C193.694 154.681 193.289 154.05 192.733 153.485C192.221 152.919 191.537 152.397 190.683 151.918C189.871 151.439 188.91 151.026 187.799 150.678C186.689 150.286 185.407 149.96 183.955 149.699C181.648 149.22 179.64 148.589 177.932 147.806C176.223 147.022 174.792 146.043 173.639 144.868C172.485 143.693 171.631 142.366 171.076 140.886C170.52 139.363 170.243 137.666 170.243 135.794C170.243 133.967 170.627 132.269 171.396 130.703C172.208 129.136 173.297 127.787 174.664 126.656C176.074 125.481 177.718 124.588 179.598 123.979C181.477 123.326 183.506 123 185.685 123C187.992 123 190.106 123.305 192.028 123.914C193.951 124.523 195.659 125.437 197.155 126.656C198.65 127.831 199.888 129.288 200.871 131.029L196.001 135.925C195.147 134.489 194.186 133.292 193.118 132.335C192.05 131.334 190.875 130.594 189.594 130.115C188.312 129.593 186.945 129.332 185.493 129.332C183.827 129.332 182.374 129.593 181.136 130.115C179.897 130.638 178.914 131.377 178.188 132.335C177.505 133.249 177.163 134.337 177.163 135.599C177.163 136.513 177.334 137.361 177.675 138.144C178.017 138.884 178.53 139.559 179.213 140.168C179.939 140.734 180.901 141.256 182.097 141.735C183.293 142.17 184.724 142.562 186.39 142.91C188.739 143.432 190.832 144.106 192.669 144.933C194.506 145.717 196.065 146.652 197.347 147.74C198.628 148.828 199.589 150.047 200.23 151.396C200.914 152.745 201.255 154.203 201.255 155.769C201.255 158.685 200.593 161.209 199.269 163.342C197.945 165.474 196.065 167.128 193.63 168.303C191.195 169.434 188.291 170 184.916 170Z" fill="white"/>
<path d="M236.242 170C233.081 170 230.155 169.413 227.464 168.238C224.815 167.063 222.487 165.431 220.48 163.342C218.515 161.209 216.977 158.729 215.866 155.9C214.798 153.028 214.264 149.894 214.264 146.5C214.264 143.106 214.798 139.994 215.866 137.165C216.977 134.293 218.515 131.813 220.48 129.724C222.487 127.591 224.815 125.938 227.464 124.763C230.155 123.588 233.081 123 236.242 123C239.403 123 242.308 123.588 244.957 124.763C247.648 125.938 249.976 127.591 251.941 129.724C253.949 131.856 255.486 134.358 256.554 137.231C257.665 140.059 258.22 143.149 258.22 146.5C258.22 149.851 257.665 152.963 256.554 155.835C255.486 158.663 253.949 161.144 251.941 163.276C249.976 165.409 247.648 167.063 244.957 168.238C242.308 169.413 239.403 170 236.242 170ZM236.242 163.146C238.421 163.146 240.407 162.732 242.201 161.906C244.038 161.079 245.619 159.925 246.943 158.446C248.267 156.923 249.292 155.16 250.019 153.158C250.788 151.113 251.172 148.894 251.172 146.5C251.172 144.106 250.788 141.909 250.019 139.907C249.292 137.862 248.267 136.099 246.943 134.619C245.619 133.096 244.038 131.921 242.201 131.094C240.407 130.268 238.421 129.854 236.242 129.854C234.064 129.854 232.056 130.268 230.219 131.094C228.425 131.921 226.845 133.075 225.478 134.554C224.153 136.034 223.128 137.796 222.402 139.842C221.676 141.844 221.313 144.063 221.313 146.5C221.313 148.894 221.676 151.113 222.402 153.158C223.128 155.204 224.153 156.966 225.478 158.446C226.845 159.925 228.425 161.079 230.219 161.906C232.056 162.732 234.064 163.146 236.242 163.146Z" fill="white"/>
<path d="M273.997 169.347V123.653H280.918V169.347H273.997ZM277.073 149.894V143.106H300.205V149.894H277.073ZM277.073 130.442V123.653H303.088V130.442H277.073Z" fill="white"/>
<path d="M328.411 169.347V130.442H315.853V123.653H348.275V130.442H335.332V169.347H328.411Z" fill="white"/>
<path d="M373.389 169.347L359.1 123.653H366.468L375.119 152.244C375.375 152.941 375.61 153.768 375.824 154.725C376.037 155.639 376.229 156.575 376.4 157.532C376.571 158.489 376.721 159.381 376.849 160.208C377.02 161.035 377.169 161.71 377.297 162.232L375.439 162.167C376.08 159.86 376.571 158.076 376.913 156.814C377.297 155.552 377.596 154.594 377.81 153.942C378.023 153.245 378.216 152.658 378.387 152.179L386.46 131.551H392.676L400.493 152.179C400.92 153.224 401.283 154.268 401.582 155.313C401.924 156.313 402.223 157.336 402.479 158.381C402.735 159.381 403.013 160.448 403.312 161.579L401.646 162.036C401.86 160.861 402.009 159.947 402.095 159.294C402.223 158.598 402.33 158.032 402.415 157.597C402.5 157.162 402.586 156.749 402.671 156.357C402.757 155.922 402.885 155.378 403.056 154.725C403.269 154.072 403.547 153.18 403.889 152.049L412.411 123.653H419.844L405.555 169.347H400.749L388.895 140.756L389.472 141.017L378.066 169.347H373.389Z" fill="white"/>
<path d="M426.831 169.347L444.196 123.653H451.244L468.481 169.347H461.112L450.86 141.8C450.732 141.495 450.475 140.756 450.091 139.581C449.749 138.406 449.343 137.1 448.874 135.664C448.404 134.228 447.977 132.922 447.592 131.747C447.208 130.529 446.951 129.745 446.823 129.397L448.297 129.332C448.041 130.072 447.72 131.007 447.336 132.139C446.994 133.27 446.61 134.467 446.182 135.729C445.798 136.991 445.413 138.188 445.029 139.319C444.645 140.407 444.324 141.321 444.068 142.061L433.88 169.347H426.831ZM434.521 157.989L437.084 151.2H457.46L460.407 157.989H434.521Z" fill="white"/>
<path d="M482.782 169.347V123.653H501.877C504.44 123.653 506.789 124.306 508.925 125.611C511.104 126.873 512.834 128.614 514.115 130.833C515.397 133.009 516.038 135.468 516.038 138.21C516.038 140.69 515.397 142.997 514.115 145.129C512.834 147.262 511.125 148.981 508.989 150.286C506.853 151.548 504.483 152.179 501.877 152.179H489.702V169.347H482.782ZM509.438 169.347L498.032 148.719L505.145 147.087L517.832 169.413L509.438 169.347ZM489.702 145.39H502.518C503.756 145.39 504.867 145.086 505.85 144.476C506.832 143.824 507.601 142.953 508.156 141.865C508.712 140.734 508.989 139.494 508.989 138.144C508.989 136.621 508.626 135.294 507.9 134.163C507.216 132.987 506.234 132.074 504.952 131.421C503.714 130.768 502.304 130.442 500.723 130.442H489.702V145.39Z" fill="white"/>
<path d="M533.743 169.347V123.653H562V130.442H540.663V162.558H562V169.347H533.743ZM536.882 149.307V142.518H558.476V149.307H536.882Z" fill="white"/>
<ellipse cx="598.333" cy="83.6666" rx="12.6667" ry="13" fill="white"/>
</svg>
