<svg width="225" height="225" viewBox="0 0 225 225" fill="none" xmlns="http://www.w3.org/2000/svg">
  <path d="M209.273 179L179 116.353V108.35L209.273 46H225L191.143 115.662V109.042L225 179H209.273Z" fill="black"/>
  <path d="M14.5985 97.8736C11.569 97.8736 8.95603 97.041 6.75962 95.3758C4.60109 93.7106 2.93485 91.3641 1.76091 88.3365C0.58697 85.2709 0 81.6377 0 77.4368C0 73.2359 0.58697 69.6216 1.76091 66.594C2.93485 63.5284 4.60109 61.1631 6.75962 59.4978C8.95603 57.8326 11.569 57 14.5985 57C17.628 57 20.241 57.8326 22.4374 59.4978C24.6338 61.1631 26.319 63.5284 27.4929 66.594C28.6669 69.6216 29.2538 73.2359 29.2538 77.4368C29.2538 81.6377 28.6669 85.2709 27.4929 88.3365C26.319 91.3641 24.6338 93.7106 22.4374 95.3758C20.241 97.041 17.628 97.8736 14.5985 97.8736ZM14.5985 92.3103C17.363 92.3103 19.5026 91.0235 21.0173 88.45C22.5321 85.8386 23.2895 82.1676 23.2895 77.4368C23.2895 72.7061 22.5321 69.0539 21.0173 66.4804C19.5026 63.869 17.363 62.5634 14.5985 62.5634C11.8341 62.5634 9.69447 63.869 8.17971 66.4804C6.66495 69.0539 5.90757 72.7061 5.90757 77.4368C5.90757 82.1676 6.66495 85.8386 8.17971 88.45C9.69447 91.0235 11.8341 92.3103 14.5985 92.3103Z" fill="black"/>
  <path d="M49.3294 94.5243V62.2795L51.4312 63.869L43.5923 68.0132L41.945 62.6769L52.5672 57H55.521V94.5243H49.3294ZM43.0242 97.306V91.402H61.9966V97.306H43.0242Z" fill="black"/>
  <path d="M87.7286 97.8736C84.6991 97.8736 82.0862 97.041 79.8898 95.3758C77.7312 93.7106 76.065 91.3641 74.891 88.3365C73.7171 85.2709 73.1301 81.6377 73.1301 77.4368C73.1301 73.2359 73.7171 69.6216 74.891 66.594C76.065 63.5284 77.7312 61.1631 79.8898 59.4978C82.0862 57.8326 84.6991 57 87.7286 57C90.7582 57 93.3711 57.8326 95.5675 59.4978C97.7639 61.1631 99.4491 63.5284 100.623 66.594C101.797 69.6216 102.384 73.2359 102.384 77.4368C102.384 81.6377 101.797 85.2709 100.623 88.3365C99.4491 91.3641 97.7639 93.7106 95.5675 95.3758C93.3711 97.041 90.7582 97.8736 87.7286 97.8736ZM87.7286 92.3103C90.4931 92.3103 92.6327 91.0235 94.1474 88.45C95.6622 85.8386 96.4196 82.1676 96.4196 77.4368C96.4196 72.7061 95.6622 69.0539 94.1474 66.4804C92.6327 63.869 90.4931 62.5634 87.7286 62.5634C84.9642 62.5634 82.8246 63.869 81.3098 66.4804C79.7951 69.0539 79.0377 72.7061 79.0377 77.4368C79.0377 82.1676 79.7951 85.8386 81.3098 88.45C82.8246 91.0235 84.9642 92.3103 87.7286 92.3103Z" fill="black"/>
  <path d="M127.345 97.8736C124.315 97.8736 121.702 97.041 119.506 95.3758C117.347 93.7106 115.681 91.3641 114.507 88.3365C113.333 85.2709 112.746 81.6377 112.746 77.4368C112.746 73.2359 113.333 69.6216 114.507 66.594C115.681 63.5284 117.347 61.1631 119.506 59.4978C121.702 57.8326 124.315 57 127.345 57C130.374 57 132.987 57.8326 135.184 59.4978C137.38 61.1631 139.065 63.5284 140.239 66.594C141.413 69.6216 142 73.2359 142 77.4368C142 81.6377 141.413 85.2709 140.239 88.3365C139.065 91.3641 137.38 93.7106 135.184 95.3758C132.987 97.041 130.374 97.8736 127.345 97.8736ZM127.345 92.3103C130.109 92.3103 132.249 91.0235 133.763 88.45C135.278 85.8386 136.036 82.1676 136.036 77.4368C136.036 72.7061 135.278 69.0539 133.763 66.4804C132.249 63.869 130.109 62.5634 127.345 62.5634C124.58 62.5634 122.441 63.869 120.926 66.4804C119.411 69.0539 118.654 72.7061 118.654 77.4368C118.654 82.1676 119.411 85.8386 120.926 88.45C122.441 91.0235 124.58 92.3103 127.345 92.3103Z" fill="black"/>
  <path d="M14.5985 168C11.569 168 8.95603 167.167 6.75962 165.502C4.60109 163.837 2.93485 161.49 1.76091 158.463C0.58697 155.397 0 151.764 0 147.563C0 143.362 0.58697 139.748 1.76091 136.72C2.93485 133.655 4.60109 131.289 6.75962 129.624C8.95603 127.959 11.569 127.126 14.5985 127.126C17.628 127.126 20.241 127.959 22.4374 129.624C24.6338 131.289 26.319 133.655 27.4929 136.72C28.6669 139.748 29.2538 143.362 29.2538 147.563C29.2538 151.764 28.6669 155.397 27.4929 158.463C26.319 161.49 24.6338 163.837 22.4374 165.502C20.241 167.167 17.628 168 14.5985 168ZM14.5985 162.437C17.363 162.437 19.5026 161.15 21.0173 158.576C22.5321 155.965 23.2895 152.294 23.2895 147.563C23.2895 142.832 22.5321 139.18 21.0173 136.607C19.5026 133.995 17.363 132.69 14.5985 132.69C11.8341 132.69 9.69447 133.995 8.17971 136.607C6.66495 139.18 5.90757 142.832 5.90757 147.563C5.90757 152.294 6.66495 155.965 8.17971 158.576C9.69447 161.15 11.8341 162.437 14.5985 162.437Z" fill="black"/>
  <path d="M54.2145 168C51.185 168 48.5721 167.167 46.3757 165.502C44.2171 163.837 42.5509 161.49 41.3769 158.463C40.203 155.397 39.616 151.764 39.616 147.563C39.616 143.362 40.203 139.748 41.3769 136.72C42.5509 133.655 44.2171 131.289 46.3757 129.624C48.5721 127.959 51.185 127.126 54.2145 127.126C57.2441 127.126 59.857 127.959 62.0534 129.624C64.2498 131.289 65.935 133.655 67.109 136.72C68.2829 139.748 68.8699 143.362 68.8699 147.563C68.8699 151.764 68.2829 155.397 67.109 158.463C65.935 161.49 64.2498 163.837 62.0534 165.502C59.857 167.167 57.2441 168 54.2145 168ZM54.2145 162.437C56.979 162.437 59.1186 161.15 60.6333 158.576C62.1481 155.965 62.9055 152.294 62.9055 147.563C62.9055 142.832 62.1481 139.18 60.6333 136.607C59.1186 133.995 56.979 132.69 54.2145 132.69C51.4501 132.69 49.3105 133.995 47.7957 136.607C46.281 139.18 45.5236 142.832 45.5236 147.563C45.5236 152.294 46.281 155.965 47.7957 158.576C49.3105 161.15 51.4501 162.437 54.2145 162.437Z" fill="black"/>
  <path d="M88.9455 164.651V132.406L91.0472 133.995L83.2083 138.14L81.561 132.803L92.1833 127.126H95.1371V164.651H88.9455ZM82.6403 167.432V161.528H101.613V167.432H82.6403Z" fill="black"/>
  <path d="M127.345 168C124.315 168 121.702 167.167 119.506 165.502C117.347 163.837 115.681 161.49 114.507 158.463C113.333 155.397 112.746 151.764 112.746 147.563C112.746 143.362 113.333 139.748 114.507 136.72C115.681 133.655 117.347 131.289 119.506 129.624C121.702 127.959 124.315 127.126 127.345 127.126C130.374 127.126 132.987 127.959 135.184 129.624C137.38 131.289 139.065 133.655 140.239 136.72C141.413 139.748 142 143.362 142 147.563C142 151.764 141.413 155.397 140.239 158.463C139.065 161.49 137.38 163.837 135.184 165.502C132.987 167.167 130.374 168 127.345 168ZM127.345 162.437C130.109 162.437 132.249 161.15 133.763 158.576C135.278 155.965 136.036 152.294 136.036 147.563C136.036 142.832 135.278 139.18 133.763 136.607C132.249 133.995 130.109 132.69 127.345 132.69C124.58 132.69 122.441 133.995 120.926 136.607C119.411 139.18 118.654 142.832 118.654 147.563C118.654 152.294 119.411 155.965 120.926 158.576C122.441 161.15 124.58 162.437 127.345 162.437Z" fill="black"/>
  </svg>
  